<svg class="icon" style="width: 1em;height: 1em;vertical-align: middle;fill: currentColor;overflow: hidden;" viewBox="0 0 1024 1024" version="1.1" xmlns="http://www.w3.org/2000/svg" p-id="1596"><path d="M338.261333 137.045333h-9.130666a9.159111 9.159111 0 0 0 9.130666-9.159111v9.159111h347.448889v-9.159111c0 5.034667 4.096 9.159111 9.102222 9.159111h-9.102222V219.306667h82.261334V127.886222a73.216 73.216 0 0 0-73.130667-73.130666H329.102222a73.216 73.216 0 0 0-73.159111 73.130666v91.448889h82.289778V137.045333z m576 82.289778H109.710222c-20.252444 0-36.579556 16.327111-36.579555 36.551111v36.579556c0 5.034667 4.096 9.159111 9.130666 9.159111H151.324444l28.216889 597.703111a73.216 73.216 0 0 0 73.045334 69.688889h518.826666a73.045333 73.045333 0 0 0 73.045334-69.688889l28.245333-597.731556h69.006222a9.159111 9.159111 0 0 0 9.159111-9.102222V255.857778c0-20.195556-16.355556-36.551111-36.579555-36.551111zM762.595556 886.755556H261.376l-27.648-585.159112h556.572444l-27.676444 585.159112z" p-id="1597"></path></svg>