<svg class="icon" style="width: 1em;height: 1em;vertical-align: middle;fill: currentColor;overflow: hidden;" viewBox="0 0 1024 1024" version="1.1" xmlns="http://www.w3.org/2000/svg" p-id="1330"><path d="M512 128m-64 0a64 64 0 1 0 128 0 64 64 0 1 0-128 0ZM318.4 180.5m-61.3 0a61.3 61.3 0 1 0 122.6 0 61.3 61.3 0 1 0-122.6 0ZM180.5 318.4m-58.7 0a58.7 58.7 0 1 0 117.4 0 58.7 58.7 0 1 0-117.4 0ZM128 512m-56 0a56 56 0 1 0 112 0 56 56 0 1 0-112 0ZM180.5 705.6m-53.3 0a53.3 53.3 0 1 0 106.6 0 53.3 53.3 0 1 0-106.6 0ZM318.4 843.5m-50.7 0a50.7 50.7 0 1 0 101.4 0 50.7 50.7 0 1 0-101.4 0ZM512 896m-48 0a48 48 0 1 0 96 0 48 48 0 1 0-96 0ZM705.6 843.5m-45.3 0a45.3 45.3 0 1 0 90.6 0 45.3 45.3 0 1 0-90.6 0ZM843.5 705.6m-42.7 0a42.7 42.7 0 1 0 85.4 0 42.7 42.7 0 1 0-85.4 0ZM896 512m-40 0a40 40 0 1 0 80 0 40 40 0 1 0-80 0ZM871.7 377.7m-33.8 0a33.8 33.8 0 1 0 67.6 0 33.8 33.8 0 1 0-67.6 0ZM804.7 264.2m-28.3 0a28.3 28.3 0 1 0 56.6 0 28.3 28.3 0 1 0-56.6 0ZM704 180m-24 0a24 24 0 1 0 48 0 24 24 0 1 0-48 0Z" p-id="1331"></path>
 <animateTransform attributeName="transform" attributeType="XML" type="rotate" from="0" to="360"
        additive="sum" begin="0s" dur="4s" repeatCount="indefinite"/>

</svg>