<svg class="icon" style="width: 1em;height: 1em;vertical-align: middle;fill: currentColor;overflow: hidden;" viewBox="0 0 1024 1024" version="1.1" xmlns="http://www.w3.org/2000/svg" p-id="1372"><path d="M144 928A48 48 0 0 1 96 880v-736A48 48 0 0 1 144 96H736v0.448a48 48 0 0 1 27.328 13.6l150.624 150.624A48 48 0 0 1 928 294.624V880a48 48 0 0 1-48 48h-736zM288 160H160v704h128V496a48 48 0 0 1 43.392-47.776L336 448h352a48 48 0 0 1 48 48V864h128V301.248l-128-128V272a48 48 0 0 1-48 48h-352A48 48 0 0 1 288 272V160z m384 352H352v352h320V512z m0-352H352v96h320V160z" p-id="1373"></path></svg>