<svg class="icon" style="width: 1em;height: 1em;vertical-align: middle;fill: currentColor;overflow: hidden;" viewBox="0 0 1024 1024" version="1.1" xmlns="http://www.w3.org/2000/svg" p-id="1414"><path d="M479.04 128c176.16 0 318.976 142.848 318.976 319.04a317.984 317.984 0 0 1-86.976 218.976l175.616 175.552c11.52 11.52 12.384 29.568 2.656 42.08l-2.656 3.008a31.872 31.872 0 0 1-45.088 0l-178.784-178.752a317.504 317.504 0 0 1-183.776 58.24C302.816 766.144 160 623.296 160 447.04S302.816 128 479.04 128z m0 63.808a255.232 255.232 0 0 0-255.232 255.264 255.232 255.232 0 1 0 510.4 0 255.232 255.232 0 0 0-255.2-255.264z" p-id="1415"></path></svg>