<svg class="icon" style="width: 1em;height: 1em;vertical-align: middle;fill: currentColor;overflow: hidden;" viewBox="0 0 1024 1024" version="1.1" xmlns="http://www.w3.org/2000/svg" p-id="1302"><path d="M512 628c17.6 0 32-14.4 32-32V308c0-17.6-14.4-32-32-32s-32 14.4-32 32v288c0 17.6 14.4 32 32 32zM512 704m-44 0a44 44 0 1 0 88 0 44 44 0 1 0-88 0ZM512 64C264.6 64 64 264.6 64 512s200.6 448 448 448 448-200.6 448-448S759.4 64 512 64z m271.5 719.5c-35.3 35.3-76.4 63-122.1 82.3-47.3 20-97.6 30.2-149.5 30.2s-102.2-10.1-149.5-30.2c-45.7-19.3-86.8-47-122.1-82.3s-63-76.4-82.3-122.1c-20-47.3-30.2-97.6-30.2-149.5s10.1-102.2 30.2-149.5c19.3-45.7 47-86.8 82.3-122.1s76.4-63 122.1-82.3c47.3-20 97.6-30.2 149.5-30.2s102.2 10.1 149.5 30.2c45.7 19.3 86.8 47 122.1 82.3s63 76.4 82.3 122.1c20 47.3 30.2 97.6 30.2 149.5s-10.1 102.2-30.2 149.5c-19.3 45.8-47 86.8-82.3 122.1z" p-id="1303"></path></svg>