<svg class="icon" style="width: 1em;height: 1em;vertical-align: middle;fill: currentColor;overflow: hidden;" viewBox="0 0 1024 1024" version="1.1" xmlns="http://www.w3.org/2000/svg" p-id="1470"><path d="M512 85.333333a426.666667 426.666667 0 1 0 426.666667 426.666667A426.666667 426.666667 0 0 0 512 85.333333z m0 768a341.333333 341.333333 0 1 1 341.333333-341.333333 341.333333 341.333333 0 0 1-341.333333 341.333333z m30.72-587.946666a32.853333 32.853333 0 0 0-22.613333-9.386667h-16.213334a32 32 0 0 0-22.613333 9.386667L347.733333 399.36a21.333333 21.333333 0 0 0 0 30.293333l29.866667 30.293334a21.333333 21.333333 0 0 0 30.293333 0L469.333333 398.08v348.586667a21.333333 21.333333 0 0 0 21.333334 21.333333h42.666666a21.333333 21.333333 0 0 0 21.333334-21.333333V398.08l61.44 61.44a20.906667 20.906667 0 0 0 29.866666 0l30.293334-30.293333a21.333333 21.333333 0 0 0 0-30.293334z" p-id="1471"></path></svg>