<svg class="icon" style="width: 1em;height: 1em;vertical-align: middle;fill: currentColor;overflow: hidden;" viewBox="0 0 1024 1024" version="1.1" xmlns="http://www.w3.org/2000/svg" p-id="1690"><path d="M891.6 766.5c-20.8-48.7-50.5-92.5-88.3-130.1s-81.9-67.1-130.9-87.7c-7.4-3.1-15-6-22.5-8.7 72.3-45.7 120.2-126.3 120.2-218.1C770.1 179.5 654.5 64 512 64S253.9 179.5 253.9 321.9c0 91.8 48 172.4 120.2 218.1-7.6 2.7-15.1 5.6-22.5 8.7-49.1 20.6-93.1 50.1-130.9 87.7-37.8 37.6-67.5 81.4-88.3 130.1C110.9 817 100 870.6 100 925.9c0 18.8 15.4 34.1 34.3 34.1s34.3-15.3 34.3-34.1c0-91.1 35.7-176.8 100.6-241.2 64.8-64.4 151.1-99.9 242.8-99.9s177.9 35.5 242.8 99.9c64.8 64.4 100.6 150.1 100.6 241.2 0 18.8 15.4 34.1 34.3 34.1 19 0 34.3-15.3 34.3-34.1 0-55.3-10.9-108.9-32.4-159.4zM320.9 321.9c0-51 19.9-99 56-135C413 150.8 461 131 512 131s99 19.9 135.1 55.9c36.1 36.1 56 84 56 135s-19.9 99-56 135c-36.1 36.1-84.1 56-135.1 56S413 493 376.9 457c-36.1-36.1-56-84.1-56-135.1z" p-id="1691"></path></svg>